#!OML:ASF F:\VICON\USERDATA\INSTALL\SteveWalk\SteveWalk.ASF
:FULLY-SPECIFIED
:DEGREES
167
root 0.713284 16.2049 -7.51248 16.926 -4.2688 5.36865
lowerback -14.3718 -0.0425729 -8.02173
upperback -4.83799 1.1549 -2.64367
thorax 2.81226 0.589221 1.93057
lowerneck -7.9543 -1.70786 -1.11068
upperneck 11.7528 -2.54524 2.97204
head 4.88667 -1.1106 0.934663
rclavicle -5.80824e-015 2.46493e-014
rhumerus -34.8361 -1.13118 -88.6895
rradius 48.0856
rwrist -14.791
rhand -15.2366 -46.2269
rfingers 7.12502
rthumb 10.9365 -75.922
lclavicle -5.80824e-015 2.46493e-014
lhumerus -58.6486 35.0424 46.5955
lradius 11.8333
lwrist -43.7296
lhand -11.0067 -15.0479
lfingers 7.12502
lthumb 15.0141 14.3878
rfemur -25.1407 -4.33615 13.3925
rtibia 73.7811
rfoot 7.99277 8.22416
rtoes -6.49041
lfemur -41.6394 -1.1266 -27.7569
ltibia 38.5104
lfoot -13.1216 0.271538
ltoes -10.9815
168
root 0.727877 16.2493 -7.29275 16.9979 -4.29545 5.18402
lowerback -14.5774 -0.0719001 -7.51437
upperback -4.8658 1.06388 -2.63173
thorax 2.91514 0.539171 1.64769
lowerneck -7.69254 -1.6317 -1.29599
upperneck 11.7364 -2.445 3.17209
head 4.83986 -1.05979 1.03548
rclavicle 1.01567e-014 4.77083e-015
rhumerus -35.6616 -1.42572 -88.9806
rradius 45.6874
rwrist -16.7128
rhand -17.2383 -36.2554
rfingers 7.12502
rthumb 9.00538 -66.0431
lclavicle 1.01567e-014 4.77083e-015
lhumerus -56.775 34.6474 48.8314
lradius 12.1635
lwrist -42.042
lhand -11.3062 -15.5326
lfingers 7.12502
lthumb 14.7255 13.9244
rfemur -27.0348 -4.52782 13.6605
rtibia 75.0397
rfoot 5.8488 7.36885
rtoes -7.78516
lfemur -40.629 -1.31046 -27.616
ltibia 38.2922
lfoot -13.6874 0.785203
ltoes -10.1055
169
root 0.734 16.2892 -7.08177 16.9894 -4.14523 4.89456
lowerback -14.6008 -0.162776 -7.05994
upperback -4.80876 0.881072 -2.51173
thorax 3.01158 0.443591 1.49051
lowerneck -7.62032 -1.5672 -1.39353
upperneck 11.7094 -2.35643 3.25971
head 4.81937 -1.01622 1.08484
rclavicle -3.88873e-015 1.98785e-015
rhumerus -36.131 -2.60543 -88.666
rradius 43.2456
rwrist -15.7009
rhand -16.2174 -32.124
rfingers 7.12502
rthumb 9.99038 -61.8669
lclavicle -3.88873e-015 1.98785e-015
lhumerus -54.4953 34.0225 51.6702
lradius 12.6667
lwrist -39.7522
lhand -11.5752 -15.3394
lfingers 7.12502
lthumb 14.4663 14.1364
rfemur -28.8353 -4.69912 14.1825
rtibia 75.9896
rfoot 3.99403 6.45583
rtoes -7.20706
lfemur -39.5668 -1.53103 -27.2837
ltibia 37.9971
lfoot -14.2561 1.19322
ltoes -10.2273
170
root 0.734441 16.3003 -6.88812 17.0602 -3.87691 4.43866
lowerback -14.4336 -0.243953 -6.50013
upperback -4.84888 0.671174 -2.34602
thorax 2.90345 0.342638 1.31556
lowerneck -7.476 -1.51381 -1.28746
upperneck 11.5918 -2.27716 3.11788
head 4.75412 -0.9839 1.02986
rclavicle 2.49723e-015 -1.98785e-015
rhumerus -36.6823 -3.66533 -88.3352
rradius 40.995
rwrist -14.5516
rhand -15.3956 -32.1535
rfingers 7.12502
rthumb 10.7832 -61.8567
lclavicle 2.49723e-015 -1.98785e-015
lhumerus -52.0588 32.9319 54.7412
lradius 13.1994
lwrist -36.8868
lhand -11.7523 -14.9269
lfingers 7.12502
lthumb 14.2957 14.561
rfemur -30.8296 -4.89962 14.9975
rtibia 76.8241
rfoot 5.18399 7.3961
rtoes -20.1633
lfemur -38.6593 -1.72321 -26.7458
ltibia 37.7474
lfoot -14.8322 1.54787
ltoes -10.7376
171
root 0.736386 16.3368 -6.68682 17.0925 -3.80813 4.16995
lowerback -14.2669 -0.28299 -6.18017
upperback -4.96104 0.549652 -2.21872
thorax 2.7075 0.288888 1.24907
lowerneck -7.34968 -1.4526 -1.07346
upperneck 11.7589 -2.18632 2.80309
head 4.77645 -0.949137 0.90407
rclavicle -3.28616e-015 -2.38542e-015
rhumerus -37.4467 -4.6124 -88.0073
rradius 38.751
rwrist -14.1356
rhand -15.1609 -33.8192
rfingers 7.12502
rthumb 11.0095 -63.5105
lclavicle -3.28616e-015 -2.38542e-015
lhumerus -49.9346 31.6876 57.4615
lradius 13.7078
lwrist -34.5068
lhand -12.1413 -14.9282
lfingers 7.12502
lthumb 13.9208 14.5858
rfemur -32.6065 -4.90677 15.4975
rtibia 77.2675
rfoot 2.77573 5.28324
rtoes -7.12399
lfemur -37.654 -1.61434 -26.5553
ltibia 37.4736
lfoot -15.571 1.75466
ltoes -11.0373
172
root 0.739457 16.3663 -6.48256 17.0533 -3.67235 3.83946
lowerback -14.2282 -0.337792 -5.76868
upperback -4.9836 0.409643 -2.02911
thorax 2.67625 0.219595 1.19451
lowerneck -7.12923 -1.4389 -1.11124
upperneck 11.9116 -2.15015 2.66137
head 4.78426 -0.94253 0.870046
rclavicle -6.03187e-015 -1.66979e-014
rhumerus -38.3412 -5.55021 -87.4817
rradius 36.7033
rwrist -13.5152
rhand -14.5526 -36.1011
rfingers 7.12502
rthumb 11.5962 -65.7602
lclavicle -6.03187e-015 -1.66979e-014
lhumerus -48.0205 30.685 59.8516
lradius 14.2612
lwrist -32.8419
lhand -12.6469 -15.465
lfingers 7.12502
lthumb 13.4335 14.0819
rfemur -34.1853 -4.95169 16.0926
rtibia 77.5108
rfoot 1.44385 4.83194
rtoes -9.89527
lfemur -36.7144 -1.57986 -26.2486
ltibia 37.2721
lfoot -16.1785 1.78168
ltoes -10.4861
173
root 0.739162 16.3819 -6.27912 17.0045 -3.52178 3.42465
lowerback -14.1788 -0.356832 -5.35959
upperback -4.97192 0.317116 -1.79474
thorax 2.67108 0.172975 1.19561
lowerneck -6.96642 -1.44119 -1.29009
upperneck 12.0568 -2.14126 2.69996
head 4.80346 -0.944142 0.91272
rclavicle -1.2424e-015 1.70955e-014
rhumerus -39.1595 -6.54282 -86.7693
rradius 34.6943
rwrist -12.7254
rhand -14.1782 -37.0613
rfingers 7.12502
rthumb 11.9573 -66.6998
lclavicle -1.2424e-015 1.70955e-014
lhumerus -46.083 29.8817 61.9689
lradius 14.6285
lwrist -31.5628
lhand -13.2197 -15.8136
lfingers 7.12502
lthumb 12.8814 13.7689
rfemur -35.6166 -4.93606 16.8108
rtibia 77.5138
rfoot -0.0168761 4.31926
rtoes -11.6595
lfemur -35.6698 -1.61726 -25.7737
ltibia 36.948
lfoot -16.6717 1.69649
ltoes -10.2935
174
root 0.740909 16.3894 -6.07489 16.9344 -3.69307 3.39785
lowerback -14.2095 -0.344187 -5.35789
upperback -4.90689 0.33425 -1.68243
thorax 2.75434 0.179146 1.31524
lowerneck -6.93334 -1.48278 -1.45784
upperneck 12.1151 -2.18242 2.72448
head 4.81865 -0.970294 0.945343
rclavicle 4.31114e-015 9.54166e-015
rhumerus -39.7834 -7.88075 -85.8195
rradius 32.3858
rwrist -11.5494
rhand -13.9389 -36.8604
rfingers 7.12502
rthumb 12.188 -66.4853
lclavicle 4.31114e-015 9.54166e-015
lhumerus -44.0357 29.0804 64.0967
lradius 15.0495
lwrist -30.2782
lhand -13.7347 -15.3451
lfingers 7.12502
lthumb 12.3849 14.268
rfemur -36.9357 -4.68043 16.9157
rtibia 77.3511
rfoot -1.71472 3.98497
rtoes -10.5303
lfemur -34.6066 -1.47798 -25.8277
ltibia 36.7169
lfoot -17.2907 1.75981
ltoes -10.3365
